<svg viewBox="0 0 200 200" xmlns="http://www.w3.org/2000/svg">
  <defs>
    <linearGradient id="keyboardGradient" x1="0%" y1="0%" x2="100%" y2="100%">
      <stop offset="0%" style="stop-color:#FFD93D;stop-opacity:1" />
      <stop offset="100%" style="stop-color:#e8c429;stop-opacity:1" />
    </linearGradient>
  </defs>
  <circle cx="100" cy="100" r="95" fill="#fffef0" stroke="#FFD93D" stroke-width="2"/>
  <rect x="35" y="70" width="130" height="60" rx="8" fill="url(#keyboardGradient)"/>
  <rect x="40" y="75" width="120" height="50" rx="6" fill="#333333"/>
  <circle cx="50" cy="85" r="4" fill="#666666"/>
  <circle cx="65" cy="85" r="4" fill="#666666"/>
  <circle cx="80" cy="85" r="4" fill="#666666"/>
  <circle cx="95" cy="85" r="4" fill="#666666"/>
  <circle cx="110" cy="85" r="4" fill="#666666"/>
  <circle cx="125" cy="85" r="4" fill="#666666"/>
  <circle cx="140" cy="85" r="4" fill="#666666"/>
  <circle cx="150" cy="85" r="4" fill="#666666"/>
  <circle cx="50" cy="100" r="4" fill="#666666"/>
  <circle cx="65" cy="100" r="4" fill="#666666"/>
  <circle cx="80" cy="100" r="4" fill="#666666"/>
  <circle cx="95" cy="100" r="4" fill="#666666"/>
  <circle cx="110" cy="100" r="4" fill="#666666"/>
  <circle cx="125" cy="100" r="4" fill="#666666"/>
  <circle cx="140" cy="100" r="4" fill="#666666"/>
  <circle cx="150" cy="100" r="4" fill="#666666"/>
  <circle cx="50" cy="115" r="4" fill="#666666"/>
  <circle cx="100" cy="115" r="6" fill="#666666"/>
  <circle cx="150" cy="115" r="4" fill="#666666"/>
  <path d="M 35 135 Q 35 145 45 145 L 155 145 Q 165 145 165 135" fill="url(#keyboardGradient)"/>
</svg>
